# xmcd CD database file
#
# Track frame offsets:
#	150
#	33256
#	65653
#	110638
#	138030
#	167749
#
# Disc length: 2620 seconds
#
# Revision: 0
# Processed by: cddbd v1.5.2PL0 Copyright (c) Steve Scherf et al.
# Submitted via: CDex 1.51
#
DISCID=4c0a3a06
DTITLE=Martial Solal Newdecaband - exposition sans tableau
DYEAR=2006
DGENRE=Jazz
TTITLE0=incoercible
TTITLE1=western
TTITLE2=a frail dance
TTITLE3=cortancyl
TTITLE4=exposition sans tableau
TTITLE5=lamblike
EXTD=YEAR: 2006
EXTT0=
EXTT1=
EXTT2=
EXTT3=
EXTT4=
EXTT5=
PLAYORDER=
